<svg xmlns="http://www.w3.org/2000/svg" version="1.1" xmlns:xlink="http://www.w3.org/1999/xlink" viewBox="0 0 700 700" style="overflow: hidden; display: block;" width="700" height="700"><defs></defs><g id="two-0" transform="matrix(1 0 0 1 0 0)" opacity="1"><path transform="matrix(1 0 0 1 350 350)" id="two-18" d="M 155.355321 45.616438 C 151.016542 78.362637 196.784422 100.341647 205.648754 132.162429 C 215.14928 166.266992 224.503326 208.394866 207.466602 239.429222 C 193.187507 265.440241 160.450703 287.514546 130.79866 286.409116 C 90.166024 284.894328 57.513486 245.063874 30.82437 214.388203 C 8.337162 188.542079 16.555784 124.9183 -17.622884 122.56985 C -77.10226 118.482963 -67.938498 292.196627 -122.995822 269.323282 C -171.692171 249.092579 -56.208384 145.373075 -96.784412 111.695165 C -144.985653 71.688365 -235.164532 225.057397 -275.09455 176.792532 C -303.626715 142.304667 -228.613847 98.701011 -205.533486 60.350076 C -193.524287 40.395275 -163.838273 22.723047 -168.944939 0 C -180.672889 -52.185661 -296.277395 -36.421963 -304.195589 -89.319884 C -308.590079 -118.677506 -262.584964 -133.471372 -246.93863 -158.697822 C -231.066361 -184.288546 -238.823904 -234.351959 -209.699575 -242.00621 C -150.288243 -257.620277 -115.577607 -157.528741 -59.99572 -131.372302 C -46.881249 -125.200726 -30.435215 -114.523338 -17.367438 -120.793179 C 18.401353 -137.954828 2.090034 -205.130206 33.058514 -229.927016 C 54.088532 -246.765989 86.52123 -252.785001 112.86325 -247.136046 C 137.638542 -241.823071 151.560288 -211.955454 174.684905 -201.597128 C 206.913598 -187.160767 252.20389 -202.083877 279.404724 -179.562514 C 303.332203 -159.751376 323.232346 -122.799417 315.633963 -92.678494 C 303.75917 -45.60536 237.519585 -32.419129 201.382475 -0.000001 C 185.464452 14.28029 158.1642 24.416902 155.355321 45.616438 Z " fill="hsl(39, 100%, 50%)" stroke="undefined" stroke-width="1" stroke-opacity="1" fill-opacity="1" visibility="visible" stroke-linecap="butt" stroke-linejoin="miter" stroke-miterlimit="4"></path></g></svg>